<mxfile host="app.diagrams.net" modified="2021-10-26T17:26:58.687Z" agent="5.0 (Macintosh)" etag="OIZ8Ahsz3kKYkp-LSQEf" version="15.5.9" type="github" pages="6">
  <diagram id="3GnIAVyGm3pbei8IDFDy" name="Page-1">
    <mxGraphModel dx="1069" dy="625" grid="1" gridSize="10" guides="1" tooltips="1" connect="1" arrows="1" fold="1" page="1" pageScale="1" pageWidth="850" pageHeight="1100" math="0" shadow="0">
      <root>
        <mxCell id="0" />
        <mxCell id="1" parent="0" />
        <mxCell id="aZZkzBbwEPlgp3BR2I00-28" value="" style="edgeStyle=orthogonalEdgeStyle;rounded=0;orthogonalLoop=1;jettySize=auto;html=1;" edge="1" parent="1" source="aZZkzBbwEPlgp3BR2I00-1" target="aZZkzBbwEPlgp3BR2I00-6">
          <mxGeometry relative="1" as="geometry" />
        </mxCell>
        <mxCell id="aZZkzBbwEPlgp3BR2I00-1" value="input" style="rounded=0;whiteSpace=wrap;html=1;fillColor=#fff2cc;strokeColor=#d6b656;" vertex="1" parent="1">
          <mxGeometry x="40" y="210" width="110" height="60" as="geometry" />
        </mxCell>
        <mxCell id="aZZkzBbwEPlgp3BR2I00-2" value="" style="swimlane;fontStyle=0;childLayout=stackLayout;horizontal=1;startSize=30;horizontalStack=0;resizeParent=1;resizeParentMax=0;resizeLast=0;collapsible=1;marginBottom=0;" vertex="1" parent="1">
          <mxGeometry x="60" y="80" width="90" height="120" as="geometry" />
        </mxCell>
        <mxCell id="aZZkzBbwEPlgp3BR2I00-3" value="Categories" style="text;strokeColor=none;fillColor=none;align=left;verticalAlign=middle;spacingLeft=4;spacingRight=4;overflow=hidden;points=[[0,0.5],[1,0.5]];portConstraint=eastwest;rotatable=0;" vertex="1" parent="aZZkzBbwEPlgp3BR2I00-2">
          <mxGeometry y="30" width="90" height="30" as="geometry" />
        </mxCell>
        <mxCell id="aZZkzBbwEPlgp3BR2I00-4" value="Keyword" style="text;strokeColor=none;fillColor=none;align=left;verticalAlign=middle;spacingLeft=4;spacingRight=4;overflow=hidden;points=[[0,0.5],[1,0.5]];portConstraint=eastwest;rotatable=0;" vertex="1" parent="aZZkzBbwEPlgp3BR2I00-2">
          <mxGeometry y="60" width="90" height="30" as="geometry" />
        </mxCell>
        <mxCell id="aZZkzBbwEPlgp3BR2I00-5" value="URL" style="text;strokeColor=none;fillColor=none;align=left;verticalAlign=middle;spacingLeft=4;spacingRight=4;overflow=hidden;points=[[0,0.5],[1,0.5]];portConstraint=eastwest;rotatable=0;" vertex="1" parent="aZZkzBbwEPlgp3BR2I00-2">
          <mxGeometry y="90" width="90" height="30" as="geometry" />
        </mxCell>
        <mxCell id="aZZkzBbwEPlgp3BR2I00-25" value="" style="edgeStyle=orthogonalEdgeStyle;rounded=0;orthogonalLoop=1;jettySize=auto;html=1;" edge="1" parent="1" source="aZZkzBbwEPlgp3BR2I00-6" target="aZZkzBbwEPlgp3BR2I00-22">
          <mxGeometry relative="1" as="geometry" />
        </mxCell>
        <mxCell id="aZZkzBbwEPlgp3BR2I00-29" value="" style="edgeStyle=orthogonalEdgeStyle;rounded=0;orthogonalLoop=1;jettySize=auto;html=1;" edge="1" parent="1" source="aZZkzBbwEPlgp3BR2I00-6" target="aZZkzBbwEPlgp3BR2I00-7">
          <mxGeometry relative="1" as="geometry" />
        </mxCell>
        <mxCell id="aZZkzBbwEPlgp3BR2I00-6" value="input analysis" style="rounded=0;whiteSpace=wrap;html=1;fillColor=#e1d5e7;strokeColor=#9673a6;" vertex="1" parent="1">
          <mxGeometry x="180" y="210" width="110" height="60" as="geometry" />
        </mxCell>
        <mxCell id="aZZkzBbwEPlgp3BR2I00-30" value="" style="edgeStyle=orthogonalEdgeStyle;rounded=0;orthogonalLoop=1;jettySize=auto;html=1;" edge="1" parent="1" source="aZZkzBbwEPlgp3BR2I00-7" target="aZZkzBbwEPlgp3BR2I00-12">
          <mxGeometry relative="1" as="geometry" />
        </mxCell>
        <mxCell id="aZZkzBbwEPlgp3BR2I00-7" value="Crawler" style="rounded=0;whiteSpace=wrap;html=1;fillColor=#fff2cc;strokeColor=#d6b656;" vertex="1" parent="1">
          <mxGeometry x="320" y="210" width="110" height="60" as="geometry" />
        </mxCell>
        <mxCell id="aZZkzBbwEPlgp3BR2I00-8" value="" style="swimlane;fontStyle=0;childLayout=stackLayout;horizontal=1;startSize=30;horizontalStack=0;resizeParent=1;resizeParentMax=0;resizeLast=0;collapsible=1;marginBottom=0;" vertex="1" parent="1">
          <mxGeometry x="340" y="50" width="90" height="150" as="geometry" />
        </mxCell>
        <mxCell id="aZZkzBbwEPlgp3BR2I00-9" value="Text" style="text;strokeColor=none;fillColor=none;align=left;verticalAlign=middle;spacingLeft=4;spacingRight=4;overflow=hidden;points=[[0,0.5],[1,0.5]];portConstraint=eastwest;rotatable=0;" vertex="1" parent="aZZkzBbwEPlgp3BR2I00-8">
          <mxGeometry y="30" width="90" height="30" as="geometry" />
        </mxCell>
        <mxCell id="aZZkzBbwEPlgp3BR2I00-20" value="Status" style="text;strokeColor=none;fillColor=none;align=left;verticalAlign=middle;spacingLeft=4;spacingRight=4;overflow=hidden;points=[[0,0.5],[1,0.5]];portConstraint=eastwest;rotatable=0;" vertex="1" parent="aZZkzBbwEPlgp3BR2I00-8">
          <mxGeometry y="60" width="90" height="30" as="geometry" />
        </mxCell>
        <mxCell id="aZZkzBbwEPlgp3BR2I00-10" value="Lang" style="text;strokeColor=none;fillColor=none;align=left;verticalAlign=middle;spacingLeft=4;spacingRight=4;overflow=hidden;points=[[0,0.5],[1,0.5]];portConstraint=eastwest;rotatable=0;" vertex="1" parent="aZZkzBbwEPlgp3BR2I00-8">
          <mxGeometry y="90" width="90" height="30" as="geometry" />
        </mxCell>
        <mxCell id="aZZkzBbwEPlgp3BR2I00-11" value="Schema" style="text;strokeColor=none;fillColor=none;align=left;verticalAlign=middle;spacingLeft=4;spacingRight=4;overflow=hidden;points=[[0,0.5],[1,0.5]];portConstraint=eastwest;rotatable=0;" vertex="1" parent="aZZkzBbwEPlgp3BR2I00-8">
          <mxGeometry y="120" width="90" height="30" as="geometry" />
        </mxCell>
        <mxCell id="aZZkzBbwEPlgp3BR2I00-26" value="" style="edgeStyle=orthogonalEdgeStyle;rounded=0;orthogonalLoop=1;jettySize=auto;html=1;" edge="1" parent="1" source="aZZkzBbwEPlgp3BR2I00-12" target="aZZkzBbwEPlgp3BR2I00-23">
          <mxGeometry relative="1" as="geometry" />
        </mxCell>
        <mxCell id="aZZkzBbwEPlgp3BR2I00-31" value="" style="edgeStyle=orthogonalEdgeStyle;rounded=0;orthogonalLoop=1;jettySize=auto;html=1;" edge="1" parent="1" source="aZZkzBbwEPlgp3BR2I00-12" target="aZZkzBbwEPlgp3BR2I00-14">
          <mxGeometry relative="1" as="geometry" />
        </mxCell>
        <mxCell id="aZZkzBbwEPlgp3BR2I00-12" value="Crawler analysis" style="rounded=0;whiteSpace=wrap;html=1;fillColor=#e1d5e7;strokeColor=#9673a6;" vertex="1" parent="1">
          <mxGeometry x="460" y="210" width="110" height="60" as="geometry" />
        </mxCell>
        <mxCell id="aZZkzBbwEPlgp3BR2I00-32" value="" style="edgeStyle=orthogonalEdgeStyle;rounded=0;orthogonalLoop=1;jettySize=auto;html=1;" edge="1" parent="1" source="aZZkzBbwEPlgp3BR2I00-14" target="aZZkzBbwEPlgp3BR2I00-19">
          <mxGeometry relative="1" as="geometry" />
        </mxCell>
        <mxCell id="aZZkzBbwEPlgp3BR2I00-14" value="Classifier" style="rounded=0;whiteSpace=wrap;html=1;fillColor=#fff2cc;strokeColor=#d6b656;" vertex="1" parent="1">
          <mxGeometry x="590" y="210" width="110" height="60" as="geometry" />
        </mxCell>
        <mxCell id="aZZkzBbwEPlgp3BR2I00-15" value="" style="swimlane;fontStyle=0;childLayout=stackLayout;horizontal=1;startSize=30;horizontalStack=0;resizeParent=1;resizeParentMax=0;resizeLast=0;collapsible=1;marginBottom=0;" vertex="1" parent="1">
          <mxGeometry x="605" y="50" width="80" height="150" as="geometry" />
        </mxCell>
        <mxCell id="aZZkzBbwEPlgp3BR2I00-16" value="Categories" style="text;strokeColor=none;fillColor=none;align=left;verticalAlign=middle;spacingLeft=4;spacingRight=4;overflow=hidden;points=[[0,0.5],[1,0.5]];portConstraint=eastwest;rotatable=0;" vertex="1" parent="aZZkzBbwEPlgp3BR2I00-15">
          <mxGeometry y="30" width="80" height="30" as="geometry" />
        </mxCell>
        <mxCell id="aZZkzBbwEPlgp3BR2I00-17" value="Gender" style="text;strokeColor=none;fillColor=none;align=left;verticalAlign=middle;spacingLeft=4;spacingRight=4;overflow=hidden;points=[[0,0.5],[1,0.5]];portConstraint=eastwest;rotatable=0;" vertex="1" parent="aZZkzBbwEPlgp3BR2I00-15">
          <mxGeometry y="60" width="80" height="30" as="geometry" />
        </mxCell>
        <mxCell id="aZZkzBbwEPlgp3BR2I00-21" value="Sentiment" style="text;strokeColor=none;fillColor=none;align=left;verticalAlign=middle;spacingLeft=4;spacingRight=4;overflow=hidden;points=[[0,0.5],[1,0.5]];portConstraint=eastwest;rotatable=0;" vertex="1" parent="aZZkzBbwEPlgp3BR2I00-15">
          <mxGeometry y="90" width="80" height="30" as="geometry" />
        </mxCell>
        <mxCell id="aZZkzBbwEPlgp3BR2I00-18" value="Language" style="text;strokeColor=none;fillColor=none;align=left;verticalAlign=middle;spacingLeft=4;spacingRight=4;overflow=hidden;points=[[0,0.5],[1,0.5]];portConstraint=eastwest;rotatable=0;" vertex="1" parent="aZZkzBbwEPlgp3BR2I00-15">
          <mxGeometry y="120" width="80" height="30" as="geometry" />
        </mxCell>
        <mxCell id="aZZkzBbwEPlgp3BR2I00-27" value="" style="edgeStyle=orthogonalEdgeStyle;rounded=0;orthogonalLoop=1;jettySize=auto;html=1;" edge="1" parent="1" source="aZZkzBbwEPlgp3BR2I00-19" target="aZZkzBbwEPlgp3BR2I00-24">
          <mxGeometry relative="1" as="geometry" />
        </mxCell>
        <mxCell id="aZZkzBbwEPlgp3BR2I00-19" value="Classifier analysis" style="rounded=0;whiteSpace=wrap;html=1;fillColor=#e1d5e7;strokeColor=#9673a6;" vertex="1" parent="1">
          <mxGeometry x="730" y="210" width="110" height="60" as="geometry" />
        </mxCell>
        <mxCell id="aZZkzBbwEPlgp3BR2I00-34" style="edgeStyle=orthogonalEdgeStyle;rounded=0;orthogonalLoop=1;jettySize=auto;html=1;entryX=0;entryY=0.5;entryDx=0;entryDy=0;" edge="1" parent="1" source="aZZkzBbwEPlgp3BR2I00-22" target="aZZkzBbwEPlgp3BR2I00-33">
          <mxGeometry relative="1" as="geometry">
            <Array as="points">
              <mxPoint x="235" y="560" />
            </Array>
          </mxGeometry>
        </mxCell>
        <mxCell id="mic6tJPQrOKddXH-hk2q-8" style="edgeStyle=orthogonalEdgeStyle;rounded=0;orthogonalLoop=1;jettySize=auto;html=1;" edge="1" parent="1" source="aZZkzBbwEPlgp3BR2I00-22" target="aZZkzBbwEPlgp3BR2I00-23">
          <mxGeometry relative="1" as="geometry" />
        </mxCell>
        <mxCell id="aZZkzBbwEPlgp3BR2I00-22" value="Alert" style="rounded=0;whiteSpace=wrap;html=1;fillColor=#f8cecc;strokeColor=#b85450;" vertex="1" parent="1">
          <mxGeometry x="180" y="370" width="110" height="60" as="geometry" />
        </mxCell>
        <mxCell id="aZZkzBbwEPlgp3BR2I00-35" style="edgeStyle=orthogonalEdgeStyle;rounded=0;orthogonalLoop=1;jettySize=auto;html=1;entryX=0.5;entryY=0;entryDx=0;entryDy=0;" edge="1" parent="1" source="aZZkzBbwEPlgp3BR2I00-23" target="aZZkzBbwEPlgp3BR2I00-33">
          <mxGeometry relative="1" as="geometry" />
        </mxCell>
        <mxCell id="mic6tJPQrOKddXH-hk2q-9" style="edgeStyle=orthogonalEdgeStyle;rounded=0;orthogonalLoop=1;jettySize=auto;html=1;entryX=0;entryY=0.5;entryDx=0;entryDy=0;" edge="1" parent="1" source="aZZkzBbwEPlgp3BR2I00-23" target="aZZkzBbwEPlgp3BR2I00-24">
          <mxGeometry relative="1" as="geometry" />
        </mxCell>
        <mxCell id="aZZkzBbwEPlgp3BR2I00-23" value="Alert" style="rounded=0;whiteSpace=wrap;html=1;fillColor=#f8cecc;strokeColor=#b85450;" vertex="1" parent="1">
          <mxGeometry x="460" y="370" width="110" height="60" as="geometry" />
        </mxCell>
        <mxCell id="aZZkzBbwEPlgp3BR2I00-36" style="edgeStyle=orthogonalEdgeStyle;rounded=0;orthogonalLoop=1;jettySize=auto;html=1;" edge="1" parent="1" source="aZZkzBbwEPlgp3BR2I00-24">
          <mxGeometry relative="1" as="geometry">
            <mxPoint x="689.9999999999998" y="570" as="targetPoint" />
            <Array as="points">
              <mxPoint x="785" y="560" />
              <mxPoint x="690" y="560" />
            </Array>
          </mxGeometry>
        </mxCell>
        <mxCell id="aZZkzBbwEPlgp3BR2I00-24" value="Alert" style="rounded=0;whiteSpace=wrap;html=1;fillColor=#f8cecc;strokeColor=#b85450;" vertex="1" parent="1">
          <mxGeometry x="730" y="370" width="110" height="60" as="geometry" />
        </mxCell>
        <mxCell id="aZZkzBbwEPlgp3BR2I00-40" value="" style="edgeStyle=orthogonalEdgeStyle;rounded=0;orthogonalLoop=1;jettySize=auto;html=1;" edge="1" parent="1" source="aZZkzBbwEPlgp3BR2I00-33" target="aZZkzBbwEPlgp3BR2I00-39">
          <mxGeometry relative="1" as="geometry" />
        </mxCell>
        <mxCell id="aZZkzBbwEPlgp3BR2I00-33" value="Monitoring system" style="rounded=1;whiteSpace=wrap;html=1;fillColor=#fff2cc;strokeColor=#d6b656;" vertex="1" parent="1">
          <mxGeometry x="342.5" y="520" width="345" height="80" as="geometry" />
        </mxCell>
        <mxCell id="aZZkzBbwEPlgp3BR2I00-39" value="WEB UI&lt;br&gt;plots " style="rounded=1;whiteSpace=wrap;html=1;fillColor=#fff2cc;strokeColor=#d6b656;" vertex="1" parent="1">
          <mxGeometry x="455" y="650" width="120" height="60" as="geometry" />
        </mxCell>
      </root>
    </mxGraphModel>
  </diagram>
  <diagram id="YWvs_xJHy2XgvdXVI5-9" name="Page-2">
    <mxGraphModel dx="944" dy="552" grid="1" gridSize="10" guides="1" tooltips="1" connect="1" arrows="1" fold="1" page="1" pageScale="1" pageWidth="850" pageHeight="1100" math="0" shadow="0">
      <root>
        <mxCell id="DwXUvMFlEcANdVzrCPqp-0" />
        <mxCell id="DwXUvMFlEcANdVzrCPqp-1" parent="DwXUvMFlEcANdVzrCPqp-0" />
        <mxCell id="DwXUvMFlEcANdVzrCPqp-2" value="Status Rate" style="rounded=1;whiteSpace=wrap;html=1;" vertex="1" parent="DwXUvMFlEcANdVzrCPqp-1">
          <mxGeometry x="130" y="60" width="140" height="50" as="geometry" />
        </mxCell>
        <mxCell id="DwXUvMFlEcANdVzrCPqp-3" value="Tiers dist" style="rounded=1;whiteSpace=wrap;html=1;" vertex="1" parent="DwXUvMFlEcANdVzrCPqp-1">
          <mxGeometry x="130" y="510" width="140" height="50" as="geometry" />
        </mxCell>
        <mxCell id="DwXUvMFlEcANdVzrCPqp-4" value="Categories dist" style="rounded=1;whiteSpace=wrap;html=1;" vertex="1" parent="DwXUvMFlEcANdVzrCPqp-1">
          <mxGeometry x="130" y="375" width="140" height="50" as="geometry" />
        </mxCell>
        <mxCell id="DwXUvMFlEcANdVzrCPqp-5" value="Eng language rate" style="rounded=1;whiteSpace=wrap;html=1;" vertex="1" parent="DwXUvMFlEcANdVzrCPqp-1">
          <mxGeometry x="130" y="265" width="140" height="50" as="geometry" />
        </mxCell>
        <mxCell id="DwXUvMFlEcANdVzrCPqp-6" value="Schema rate" style="rounded=1;whiteSpace=wrap;html=1;" vertex="1" parent="DwXUvMFlEcANdVzrCPqp-1">
          <mxGeometry x="130" y="160" width="140" height="50" as="geometry" />
        </mxCell>
        <mxCell id="DwXUvMFlEcANdVzrCPqp-7" value="Most popular words in texts" style="rounded=1;whiteSpace=wrap;html=1;" vertex="1" parent="DwXUvMFlEcANdVzrCPqp-1">
          <mxGeometry x="130" y="685" width="140" height="50" as="geometry" />
        </mxCell>
        <mxCell id="DwXUvMFlEcANdVzrCPqp-8" value="Text length" style="rounded=1;whiteSpace=wrap;html=1;" vertex="1" parent="DwXUvMFlEcANdVzrCPqp-1">
          <mxGeometry x="130" y="600" width="140" height="50" as="geometry" />
        </mxCell>
        <mxCell id="TSmjcMCYde0NqKf1SZaQ-0" value="predicted" style="ellipse;whiteSpace=wrap;html=1;fillColor=#d5e8d4;strokeColor=#82b366;" vertex="1" parent="DwXUvMFlEcANdVzrCPqp-1">
          <mxGeometry x="350" y="20" width="60" height="40" as="geometry" />
        </mxCell>
        <mxCell id="TSmjcMCYde0NqKf1SZaQ-1" value="parsed" style="ellipse;whiteSpace=wrap;html=1;fillColor=#f8cecc;strokeColor=#b85450;" vertex="1" parent="DwXUvMFlEcANdVzrCPqp-1">
          <mxGeometry x="350" y="60" width="60" height="40" as="geometry" />
        </mxCell>
        <mxCell id="TSmjcMCYde0NqKf1SZaQ-2" value="failed" style="ellipse;whiteSpace=wrap;html=1;fillColor=#f8cecc;strokeColor=#b85450;" vertex="1" parent="DwXUvMFlEcANdVzrCPqp-1">
          <mxGeometry x="350" y="100" width="60" height="40" as="geometry" />
        </mxCell>
        <mxCell id="UDMDJaZ8qNYe_O04U9yE-1" value="https" style="ellipse;whiteSpace=wrap;html=1;fillColor=#d5e8d4;strokeColor=#82b366;" vertex="1" parent="DwXUvMFlEcANdVzrCPqp-1">
          <mxGeometry x="350" y="150" width="60" height="40" as="geometry" />
        </mxCell>
        <mxCell id="UDMDJaZ8qNYe_O04U9yE-2" value="http" style="ellipse;whiteSpace=wrap;html=1;fillColor=#f8cecc;strokeColor=#b85450;" vertex="1" parent="DwXUvMFlEcANdVzrCPqp-1">
          <mxGeometry x="350" y="190" width="60" height="40" as="geometry" />
        </mxCell>
        <mxCell id="UDMDJaZ8qNYe_O04U9yE-5" value="Eng" style="ellipse;whiteSpace=wrap;html=1;fillColor=#d5e8d4;strokeColor=#82b366;" vertex="1" parent="DwXUvMFlEcANdVzrCPqp-1">
          <mxGeometry x="350" y="250" width="60" height="40" as="geometry" />
        </mxCell>
        <mxCell id="UDMDJaZ8qNYe_O04U9yE-6" value="Other" style="ellipse;whiteSpace=wrap;html=1;fillColor=#f8cecc;strokeColor=#b85450;" vertex="1" parent="DwXUvMFlEcANdVzrCPqp-1">
          <mxGeometry x="350" y="290" width="60" height="40" as="geometry" />
        </mxCell>
        <mxCell id="UDMDJaZ8qNYe_O04U9yE-7" value="Mode" style="ellipse;whiteSpace=wrap;html=1;fillColor=#fff2cc;strokeColor=#d6b656;" vertex="1" parent="DwXUvMFlEcANdVzrCPqp-1">
          <mxGeometry x="350" y="340" width="60" height="40" as="geometry" />
        </mxCell>
        <mxCell id="UDMDJaZ8qNYe_O04U9yE-8" value="# unique" style="ellipse;whiteSpace=wrap;html=1;fillColor=#fff2cc;strokeColor=#d6b656;" vertex="1" parent="DwXUvMFlEcANdVzrCPqp-1">
          <mxGeometry x="350" y="380" width="60" height="40" as="geometry" />
        </mxCell>
        <mxCell id="UDMDJaZ8qNYe_O04U9yE-9" value="?" style="ellipse;whiteSpace=wrap;html=1;fillColor=#fff2cc;strokeColor=#d6b656;" vertex="1" parent="DwXUvMFlEcANdVzrCPqp-1">
          <mxGeometry x="350" y="420" width="60" height="40" as="geometry" />
        </mxCell>
        <mxCell id="UDMDJaZ8qNYe_O04U9yE-14" value="Mode" style="ellipse;whiteSpace=wrap;html=1;fillColor=#fff2cc;strokeColor=#d6b656;" vertex="1" parent="DwXUvMFlEcANdVzrCPqp-1">
          <mxGeometry x="350" y="475" width="60" height="40" as="geometry" />
        </mxCell>
        <mxCell id="UDMDJaZ8qNYe_O04U9yE-15" value="# unique" style="ellipse;whiteSpace=wrap;html=1;fillColor=#fff2cc;strokeColor=#d6b656;" vertex="1" parent="DwXUvMFlEcANdVzrCPqp-1">
          <mxGeometry x="350" y="510" width="60" height="50" as="geometry" />
        </mxCell>
        <mxCell id="UDMDJaZ8qNYe_O04U9yE-16" value="?" style="ellipse;whiteSpace=wrap;html=1;fillColor=#fff2cc;strokeColor=#d6b656;" vertex="1" parent="DwXUvMFlEcANdVzrCPqp-1">
          <mxGeometry x="350" y="555" width="60" height="40" as="geometry" />
        </mxCell>
        <mxCell id="UDMDJaZ8qNYe_O04U9yE-18" value="Distribution" style="ellipse;whiteSpace=wrap;html=1;fillColor=#fff2cc;strokeColor=#d6b656;" vertex="1" parent="DwXUvMFlEcANdVzrCPqp-1">
          <mxGeometry x="350" y="600" width="60" height="40" as="geometry" />
        </mxCell>
        <mxCell id="UDMDJaZ8qNYe_O04U9yE-27" value="Mode" style="ellipse;whiteSpace=wrap;html=1;fillColor=#fff2cc;strokeColor=#d6b656;" vertex="1" parent="DwXUvMFlEcANdVzrCPqp-1">
          <mxGeometry x="350" y="650" width="60" height="40" as="geometry" />
        </mxCell>
        <mxCell id="UDMDJaZ8qNYe_O04U9yE-28" value="# unique" style="ellipse;whiteSpace=wrap;html=1;fillColor=#fff2cc;strokeColor=#d6b656;" vertex="1" parent="DwXUvMFlEcANdVzrCPqp-1">
          <mxGeometry x="350" y="685" width="60" height="50" as="geometry" />
        </mxCell>
        <mxCell id="UDMDJaZ8qNYe_O04U9yE-29" value="?" style="ellipse;whiteSpace=wrap;html=1;fillColor=#fff2cc;strokeColor=#d6b656;" vertex="1" parent="DwXUvMFlEcANdVzrCPqp-1">
          <mxGeometry x="350" y="730" width="60" height="40" as="geometry" />
        </mxCell>
        <mxCell id="SieXuX6GQ3lAAYnsfCR7-0" value="Important URL" style="rounded=1;whiteSpace=wrap;html=1;" vertex="1" parent="DwXUvMFlEcANdVzrCPqp-1">
          <mxGeometry x="130" y="790" width="140" height="50" as="geometry" />
        </mxCell>
        <mxCell id="SieXuX6GQ3lAAYnsfCR7-1" value="?" style="ellipse;whiteSpace=wrap;html=1;fillColor=#fff2cc;strokeColor=#d6b656;" vertex="1" parent="DwXUvMFlEcANdVzrCPqp-1">
          <mxGeometry x="350" y="795" width="60" height="40" as="geometry" />
        </mxCell>
        <mxCell id="SieXuX6GQ3lAAYnsfCR7-2" value="" style="swimlane;fontStyle=0;childLayout=stackLayout;horizontal=1;startSize=30;horizontalStack=0;resizeParent=1;resizeParentMax=0;resizeLast=0;collapsible=1;marginBottom=0;" vertex="1" parent="DwXUvMFlEcANdVzrCPqp-1">
          <mxGeometry x="490" y="25" width="140" height="90" as="geometry" />
        </mxCell>
        <mxCell id="SieXuX6GQ3lAAYnsfCR7-3" value="Series Analysis" style="text;strokeColor=none;fillColor=none;align=left;verticalAlign=middle;spacingLeft=4;spacingRight=4;overflow=hidden;points=[[0,0.5],[1,0.5]];portConstraint=eastwest;rotatable=0;" vertex="1" parent="SieXuX6GQ3lAAYnsfCR7-2">
          <mxGeometry y="30" width="140" height="30" as="geometry" />
        </mxCell>
        <mxCell id="SieXuX6GQ3lAAYnsfCR7-4" value="Heuristics" style="text;strokeColor=none;fillColor=none;align=left;verticalAlign=middle;spacingLeft=4;spacingRight=4;overflow=hidden;points=[[0,0.5],[1,0.5]];portConstraint=eastwest;rotatable=0;" vertex="1" parent="SieXuX6GQ3lAAYnsfCR7-2">
          <mxGeometry y="60" width="140" height="30" as="geometry" />
        </mxCell>
        <mxCell id="X_N1USah1ilyP-bh6ePC-0" value="" style="swimlane;fontStyle=0;childLayout=stackLayout;horizontal=1;startSize=30;horizontalStack=0;resizeParent=1;resizeParentMax=0;resizeLast=0;collapsible=1;marginBottom=0;" vertex="1" parent="DwXUvMFlEcANdVzrCPqp-1">
          <mxGeometry x="490" y="140" width="140" height="90" as="geometry" />
        </mxCell>
        <mxCell id="X_N1USah1ilyP-bh6ePC-1" value="Series Analysis" style="text;strokeColor=none;fillColor=none;align=left;verticalAlign=middle;spacingLeft=4;spacingRight=4;overflow=hidden;points=[[0,0.5],[1,0.5]];portConstraint=eastwest;rotatable=0;" vertex="1" parent="X_N1USah1ilyP-bh6ePC-0">
          <mxGeometry y="30" width="140" height="30" as="geometry" />
        </mxCell>
        <mxCell id="X_N1USah1ilyP-bh6ePC-2" value="Heuristics" style="text;strokeColor=none;fillColor=none;align=left;verticalAlign=middle;spacingLeft=4;spacingRight=4;overflow=hidden;points=[[0,0.5],[1,0.5]];portConstraint=eastwest;rotatable=0;" vertex="1" parent="X_N1USah1ilyP-bh6ePC-0">
          <mxGeometry y="60" width="140" height="30" as="geometry" />
        </mxCell>
        <mxCell id="X_N1USah1ilyP-bh6ePC-3" value="" style="swimlane;fontStyle=0;childLayout=stackLayout;horizontal=1;startSize=30;horizontalStack=0;resizeParent=1;resizeParentMax=0;resizeLast=0;collapsible=1;marginBottom=0;" vertex="1" parent="DwXUvMFlEcANdVzrCPqp-1">
          <mxGeometry x="490" y="250" width="140" height="90" as="geometry" />
        </mxCell>
        <mxCell id="X_N1USah1ilyP-bh6ePC-4" value="Series Analysis" style="text;strokeColor=none;fillColor=none;align=left;verticalAlign=middle;spacingLeft=4;spacingRight=4;overflow=hidden;points=[[0,0.5],[1,0.5]];portConstraint=eastwest;rotatable=0;" vertex="1" parent="X_N1USah1ilyP-bh6ePC-3">
          <mxGeometry y="30" width="140" height="30" as="geometry" />
        </mxCell>
        <mxCell id="X_N1USah1ilyP-bh6ePC-5" value="Heuristics" style="text;strokeColor=none;fillColor=none;align=left;verticalAlign=middle;spacingLeft=4;spacingRight=4;overflow=hidden;points=[[0,0.5],[1,0.5]];portConstraint=eastwest;rotatable=0;" vertex="1" parent="X_N1USah1ilyP-bh6ePC-3">
          <mxGeometry y="60" width="140" height="30" as="geometry" />
        </mxCell>
        <mxCell id="X_N1USah1ilyP-bh6ePC-6" value="" style="swimlane;fontStyle=0;childLayout=stackLayout;horizontal=1;startSize=30;horizontalStack=0;resizeParent=1;resizeParentMax=0;resizeLast=0;collapsible=1;marginBottom=0;" vertex="1" parent="DwXUvMFlEcANdVzrCPqp-1">
          <mxGeometry x="490" y="355" width="140" height="60" as="geometry" />
        </mxCell>
        <mxCell id="X_N1USah1ilyP-bh6ePC-8" value="Heuristics" style="text;strokeColor=none;fillColor=none;align=left;verticalAlign=middle;spacingLeft=4;spacingRight=4;overflow=hidden;points=[[0,0.5],[1,0.5]];portConstraint=eastwest;rotatable=0;" vertex="1" parent="X_N1USah1ilyP-bh6ePC-6">
          <mxGeometry y="30" width="140" height="30" as="geometry" />
        </mxCell>
        <mxCell id="X_N1USah1ilyP-bh6ePC-9" value="" style="swimlane;fontStyle=0;childLayout=stackLayout;horizontal=1;startSize=30;horizontalStack=0;resizeParent=1;resizeParentMax=0;resizeLast=0;collapsible=1;marginBottom=0;" vertex="1" parent="DwXUvMFlEcANdVzrCPqp-1">
          <mxGeometry x="490" y="490" width="140" height="60" as="geometry" />
        </mxCell>
        <mxCell id="X_N1USah1ilyP-bh6ePC-11" value="Heuristics" style="text;strokeColor=none;fillColor=none;align=left;verticalAlign=middle;spacingLeft=4;spacingRight=4;overflow=hidden;points=[[0,0.5],[1,0.5]];portConstraint=eastwest;rotatable=0;" vertex="1" parent="X_N1USah1ilyP-bh6ePC-9">
          <mxGeometry y="30" width="140" height="30" as="geometry" />
        </mxCell>
        <mxCell id="X_N1USah1ilyP-bh6ePC-12" value="" style="swimlane;fontStyle=0;childLayout=stackLayout;horizontal=1;startSize=30;horizontalStack=0;resizeParent=1;resizeParentMax=0;resizeLast=0;collapsible=1;marginBottom=0;" vertex="1" parent="DwXUvMFlEcANdVzrCPqp-1">
          <mxGeometry x="490" y="580" width="140" height="90" as="geometry" />
        </mxCell>
        <mxCell id="X_N1USah1ilyP-bh6ePC-13" value="T-test" style="text;strokeColor=none;fillColor=none;align=left;verticalAlign=middle;spacingLeft=4;spacingRight=4;overflow=hidden;points=[[0,0.5],[1,0.5]];portConstraint=eastwest;rotatable=0;" vertex="1" parent="X_N1USah1ilyP-bh6ePC-12">
          <mxGeometry y="30" width="140" height="30" as="geometry" />
        </mxCell>
        <mxCell id="X_N1USah1ilyP-bh6ePC-14" value="Heuristics" style="text;strokeColor=none;fillColor=none;align=left;verticalAlign=middle;spacingLeft=4;spacingRight=4;overflow=hidden;points=[[0,0.5],[1,0.5]];portConstraint=eastwest;rotatable=0;" vertex="1" parent="X_N1USah1ilyP-bh6ePC-12">
          <mxGeometry y="60" width="140" height="30" as="geometry" />
        </mxCell>
        <mxCell id="X_N1USah1ilyP-bh6ePC-15" value="" style="swimlane;fontStyle=0;childLayout=stackLayout;horizontal=1;startSize=30;horizontalStack=0;resizeParent=1;resizeParentMax=0;resizeLast=0;collapsible=1;marginBottom=0;" vertex="1" parent="DwXUvMFlEcANdVzrCPqp-1">
          <mxGeometry x="490" y="680" width="140" height="60" as="geometry" />
        </mxCell>
        <mxCell id="X_N1USah1ilyP-bh6ePC-17" value="Heuristics" style="text;strokeColor=none;fillColor=none;align=left;verticalAlign=middle;spacingLeft=4;spacingRight=4;overflow=hidden;points=[[0,0.5],[1,0.5]];portConstraint=eastwest;rotatable=0;" vertex="1" parent="X_N1USah1ilyP-bh6ePC-15">
          <mxGeometry y="30" width="140" height="30" as="geometry" />
        </mxCell>
        <mxCell id="X_N1USah1ilyP-bh6ePC-18" value="" style="swimlane;fontStyle=0;childLayout=stackLayout;horizontal=1;startSize=30;horizontalStack=0;resizeParent=1;resizeParentMax=0;resizeLast=0;collapsible=1;marginBottom=0;" vertex="1" parent="DwXUvMFlEcANdVzrCPqp-1">
          <mxGeometry x="490" y="770" width="140" height="60" as="geometry" />
        </mxCell>
        <mxCell id="X_N1USah1ilyP-bh6ePC-20" value="Heuristics" style="text;strokeColor=none;fillColor=none;align=left;verticalAlign=middle;spacingLeft=4;spacingRight=4;overflow=hidden;points=[[0,0.5],[1,0.5]];portConstraint=eastwest;rotatable=0;" vertex="1" parent="X_N1USah1ilyP-bh6ePC-18">
          <mxGeometry y="30" width="140" height="30" as="geometry" />
        </mxCell>
      </root>
    </mxGraphModel>
  </diagram>
  <diagram id="sAIAQe3TqQ-0YqomALZh" name="Page-3">
    <mxGraphModel dx="802" dy="469" grid="1" gridSize="10" guides="1" tooltips="1" connect="1" arrows="1" fold="1" page="1" pageScale="1" pageWidth="850" pageHeight="1100" math="0" shadow="0">
      <root>
        <mxCell id="hFcq6tOY1hYpRh-ZB6Bn-0" />
        <mxCell id="hFcq6tOY1hYpRh-ZB6Bn-1" parent="hFcq6tOY1hYpRh-ZB6Bn-0" />
        <mxCell id="hFcq6tOY1hYpRh-ZB6Bn-3" value="&lt;h1&gt;Scenario 1&lt;br&gt;&lt;/h1&gt;&lt;p&gt;Anomaly detection&lt;br&gt;&lt;/p&gt;" style="text;html=1;strokeColor=none;fillColor=none;spacing=5;spacingTop=-20;whiteSpace=wrap;overflow=hidden;rounded=0;" vertex="1" parent="hFcq6tOY1hYpRh-ZB6Bn-1">
          <mxGeometry x="20" y="20" width="190" height="120" as="geometry" />
        </mxCell>
        <mxCell id="hFcq6tOY1hYpRh-ZB6Bn-8" style="edgeStyle=orthogonalEdgeStyle;rounded=0;orthogonalLoop=1;jettySize=auto;html=1;entryX=0.5;entryY=0;entryDx=0;entryDy=0;" edge="1" parent="hFcq6tOY1hYpRh-ZB6Bn-1" source="hFcq6tOY1hYpRh-ZB6Bn-4" target="hFcq6tOY1hYpRh-ZB6Bn-5">
          <mxGeometry relative="1" as="geometry" />
        </mxCell>
        <mxCell id="hFcq6tOY1hYpRh-ZB6Bn-9" style="edgeStyle=orthogonalEdgeStyle;rounded=0;orthogonalLoop=1;jettySize=auto;html=1;entryX=0.5;entryY=0;entryDx=0;entryDy=0;" edge="1" parent="hFcq6tOY1hYpRh-ZB6Bn-1" source="hFcq6tOY1hYpRh-ZB6Bn-4" target="hFcq6tOY1hYpRh-ZB6Bn-6">
          <mxGeometry relative="1" as="geometry" />
        </mxCell>
        <mxCell id="hFcq6tOY1hYpRh-ZB6Bn-4" value="Cache DB" style="shape=cylinder3;whiteSpace=wrap;html=1;boundedLbl=1;backgroundOutline=1;size=15;" vertex="1" parent="hFcq6tOY1hYpRh-ZB6Bn-1">
          <mxGeometry x="270" y="110" width="60" height="80" as="geometry" />
        </mxCell>
        <mxCell id="hFcq6tOY1hYpRh-ZB6Bn-13" style="edgeStyle=orthogonalEdgeStyle;rounded=0;orthogonalLoop=1;jettySize=auto;html=1;" edge="1" parent="hFcq6tOY1hYpRh-ZB6Bn-1" source="hFcq6tOY1hYpRh-ZB6Bn-5" target="hFcq6tOY1hYpRh-ZB6Bn-10">
          <mxGeometry relative="1" as="geometry">
            <Array as="points">
              <mxPoint x="300" y="250" />
            </Array>
          </mxGeometry>
        </mxCell>
        <mxCell id="hFcq6tOY1hYpRh-ZB6Bn-5" value="Window dump, e.g.one month period" style="rounded=1;whiteSpace=wrap;html=1;" vertex="1" parent="hFcq6tOY1hYpRh-ZB6Bn-1">
          <mxGeometry x="120" y="220" width="120" height="60" as="geometry" />
        </mxCell>
        <mxCell id="hFcq6tOY1hYpRh-ZB6Bn-12" style="edgeStyle=orthogonalEdgeStyle;rounded=0;orthogonalLoop=1;jettySize=auto;html=1;entryX=0.5;entryY=0;entryDx=0;entryDy=0;" edge="1" parent="hFcq6tOY1hYpRh-ZB6Bn-1" source="hFcq6tOY1hYpRh-ZB6Bn-6" target="hFcq6tOY1hYpRh-ZB6Bn-10">
          <mxGeometry relative="1" as="geometry">
            <mxPoint x="300" y="300" as="targetPoint" />
            <Array as="points">
              <mxPoint x="300" y="250" />
            </Array>
          </mxGeometry>
        </mxCell>
        <mxCell id="hFcq6tOY1hYpRh-ZB6Bn-6" value="Today&#39;s dump" style="rounded=1;whiteSpace=wrap;html=1;" vertex="1" parent="hFcq6tOY1hYpRh-ZB6Bn-1">
          <mxGeometry x="360" y="220" width="120" height="60" as="geometry" />
        </mxCell>
        <mxCell id="hFcq6tOY1hYpRh-ZB6Bn-16" style="edgeStyle=orthogonalEdgeStyle;rounded=0;orthogonalLoop=1;jettySize=auto;html=1;entryX=0.5;entryY=0;entryDx=0;entryDy=0;exitX=0;exitY=0.5;exitDx=0;exitDy=0;" edge="1" parent="hFcq6tOY1hYpRh-ZB6Bn-1" source="hFcq6tOY1hYpRh-ZB6Bn-10" target="hFcq6tOY1hYpRh-ZB6Bn-15">
          <mxGeometry relative="1" as="geometry">
            <Array as="points">
              <mxPoint x="180" y="350" />
            </Array>
          </mxGeometry>
        </mxCell>
        <mxCell id="hFcq6tOY1hYpRh-ZB6Bn-19" value="NO" style="edgeLabel;html=1;align=center;verticalAlign=middle;resizable=0;points=[];" vertex="1" connectable="0" parent="hFcq6tOY1hYpRh-ZB6Bn-16">
          <mxGeometry x="-0.5385" y="1" relative="1" as="geometry">
            <mxPoint as="offset" />
          </mxGeometry>
        </mxCell>
        <mxCell id="hFcq6tOY1hYpRh-ZB6Bn-17" style="edgeStyle=orthogonalEdgeStyle;rounded=0;orthogonalLoop=1;jettySize=auto;html=1;entryX=0.5;entryY=0;entryDx=0;entryDy=0;" edge="1" parent="hFcq6tOY1hYpRh-ZB6Bn-1" source="hFcq6tOY1hYpRh-ZB6Bn-10" target="hFcq6tOY1hYpRh-ZB6Bn-14">
          <mxGeometry relative="1" as="geometry">
            <Array as="points">
              <mxPoint x="420" y="350" />
            </Array>
          </mxGeometry>
        </mxCell>
        <mxCell id="hFcq6tOY1hYpRh-ZB6Bn-18" value="YES" style="edgeLabel;html=1;align=center;verticalAlign=middle;resizable=0;points=[];" vertex="1" connectable="0" parent="hFcq6tOY1hYpRh-ZB6Bn-17">
          <mxGeometry x="-0.6154" y="3" relative="1" as="geometry">
            <mxPoint as="offset" />
          </mxGeometry>
        </mxCell>
        <mxCell id="hFcq6tOY1hYpRh-ZB6Bn-10" value="Find anomalies" style="rhombus;whiteSpace=wrap;html=1;" vertex="1" parent="hFcq6tOY1hYpRh-ZB6Bn-1">
          <mxGeometry x="240" y="310" width="120" height="80" as="geometry" />
        </mxCell>
        <mxCell id="hFcq6tOY1hYpRh-ZB6Bn-14" value="Alert action" style="rounded=1;whiteSpace=wrap;html=1;fillColor=#f8cecc;strokeColor=#b85450;" vertex="1" parent="hFcq6tOY1hYpRh-ZB6Bn-1">
          <mxGeometry x="360" y="420" width="120" height="60" as="geometry" />
        </mxCell>
        <mxCell id="hFcq6tOY1hYpRh-ZB6Bn-15" value="Pass" style="rounded=1;whiteSpace=wrap;html=1;fillColor=#d5e8d4;strokeColor=#82b366;" vertex="1" parent="hFcq6tOY1hYpRh-ZB6Bn-1">
          <mxGeometry x="120" y="420" width="120" height="60" as="geometry" />
        </mxCell>
      </root>
    </mxGraphModel>
  </diagram>
  <diagram name="Copy of Page-3" id="OyPB-6cE9ikN-0g0TqoB">
    <mxGraphModel dx="802" dy="469" grid="1" gridSize="10" guides="1" tooltips="1" connect="1" arrows="1" fold="1" page="1" pageScale="1" pageWidth="850" pageHeight="1100" math="0" shadow="0">
      <root>
        <mxCell id="FNHps_0WdQr2aIm9V3DK-0" />
        <mxCell id="FNHps_0WdQr2aIm9V3DK-1" parent="FNHps_0WdQr2aIm9V3DK-0" />
        <mxCell id="FNHps_0WdQr2aIm9V3DK-2" value="&lt;h1&gt;Scenario 2&lt;br&gt;&lt;/h1&gt;&lt;p&gt;Day by day comparison&lt;br&gt;&lt;/p&gt;" style="text;html=1;strokeColor=none;fillColor=none;spacing=5;spacingTop=-20;whiteSpace=wrap;overflow=hidden;rounded=0;" vertex="1" parent="FNHps_0WdQr2aIm9V3DK-1">
          <mxGeometry x="20" y="20" width="190" height="120" as="geometry" />
        </mxCell>
        <mxCell id="FNHps_0WdQr2aIm9V3DK-3" style="edgeStyle=orthogonalEdgeStyle;rounded=0;orthogonalLoop=1;jettySize=auto;html=1;entryX=0.5;entryY=0;entryDx=0;entryDy=0;" edge="1" parent="FNHps_0WdQr2aIm9V3DK-1" source="FNHps_0WdQr2aIm9V3DK-5" target="FNHps_0WdQr2aIm9V3DK-7">
          <mxGeometry relative="1" as="geometry" />
        </mxCell>
        <mxCell id="FNHps_0WdQr2aIm9V3DK-4" style="edgeStyle=orthogonalEdgeStyle;rounded=0;orthogonalLoop=1;jettySize=auto;html=1;entryX=0.5;entryY=0;entryDx=0;entryDy=0;" edge="1" parent="FNHps_0WdQr2aIm9V3DK-1" source="FNHps_0WdQr2aIm9V3DK-5" target="FNHps_0WdQr2aIm9V3DK-9">
          <mxGeometry relative="1" as="geometry" />
        </mxCell>
        <mxCell id="FNHps_0WdQr2aIm9V3DK-5" value="Cache DB" style="shape=cylinder3;whiteSpace=wrap;html=1;boundedLbl=1;backgroundOutline=1;size=15;" vertex="1" parent="FNHps_0WdQr2aIm9V3DK-1">
          <mxGeometry x="270" y="110" width="60" height="80" as="geometry" />
        </mxCell>
        <mxCell id="FNHps_0WdQr2aIm9V3DK-6" style="edgeStyle=orthogonalEdgeStyle;rounded=0;orthogonalLoop=1;jettySize=auto;html=1;" edge="1" parent="FNHps_0WdQr2aIm9V3DK-1" source="FNHps_0WdQr2aIm9V3DK-7" target="FNHps_0WdQr2aIm9V3DK-14">
          <mxGeometry relative="1" as="geometry">
            <Array as="points">
              <mxPoint x="300" y="250" />
            </Array>
          </mxGeometry>
        </mxCell>
        <mxCell id="FNHps_0WdQr2aIm9V3DK-7" value="Yesterday&#39;s dump" style="rounded=1;whiteSpace=wrap;html=1;" vertex="1" parent="FNHps_0WdQr2aIm9V3DK-1">
          <mxGeometry x="120" y="220" width="120" height="60" as="geometry" />
        </mxCell>
        <mxCell id="FNHps_0WdQr2aIm9V3DK-8" style="edgeStyle=orthogonalEdgeStyle;rounded=0;orthogonalLoop=1;jettySize=auto;html=1;entryX=0.5;entryY=0;entryDx=0;entryDy=0;" edge="1" parent="FNHps_0WdQr2aIm9V3DK-1" source="FNHps_0WdQr2aIm9V3DK-9" target="FNHps_0WdQr2aIm9V3DK-14">
          <mxGeometry relative="1" as="geometry">
            <mxPoint x="300" y="300" as="targetPoint" />
            <Array as="points">
              <mxPoint x="300" y="250" />
            </Array>
          </mxGeometry>
        </mxCell>
        <mxCell id="FNHps_0WdQr2aIm9V3DK-9" value="Today&#39;s dump" style="rounded=1;whiteSpace=wrap;html=1;" vertex="1" parent="FNHps_0WdQr2aIm9V3DK-1">
          <mxGeometry x="360" y="220" width="120" height="60" as="geometry" />
        </mxCell>
        <mxCell id="FNHps_0WdQr2aIm9V3DK-10" style="edgeStyle=orthogonalEdgeStyle;rounded=0;orthogonalLoop=1;jettySize=auto;html=1;entryX=0.5;entryY=0;entryDx=0;entryDy=0;exitX=0;exitY=0.5;exitDx=0;exitDy=0;" edge="1" parent="FNHps_0WdQr2aIm9V3DK-1" source="FNHps_0WdQr2aIm9V3DK-14" target="FNHps_0WdQr2aIm9V3DK-16">
          <mxGeometry relative="1" as="geometry">
            <Array as="points">
              <mxPoint x="180" y="350" />
            </Array>
          </mxGeometry>
        </mxCell>
        <mxCell id="FNHps_0WdQr2aIm9V3DK-11" value="&lt;div&gt;NOT SIGN.&lt;/div&gt;" style="edgeLabel;html=1;align=center;verticalAlign=middle;resizable=0;points=[];" vertex="1" connectable="0" parent="FNHps_0WdQr2aIm9V3DK-10">
          <mxGeometry x="-0.5385" y="1" relative="1" as="geometry">
            <mxPoint as="offset" />
          </mxGeometry>
        </mxCell>
        <mxCell id="FNHps_0WdQr2aIm9V3DK-12" style="edgeStyle=orthogonalEdgeStyle;rounded=0;orthogonalLoop=1;jettySize=auto;html=1;entryX=0.5;entryY=0;entryDx=0;entryDy=0;" edge="1" parent="FNHps_0WdQr2aIm9V3DK-1" source="FNHps_0WdQr2aIm9V3DK-14" target="FNHps_0WdQr2aIm9V3DK-15">
          <mxGeometry relative="1" as="geometry">
            <Array as="points">
              <mxPoint x="420" y="350" />
            </Array>
          </mxGeometry>
        </mxCell>
        <mxCell id="FNHps_0WdQr2aIm9V3DK-13" value="SIGN." style="edgeLabel;html=1;align=center;verticalAlign=middle;resizable=0;points=[];" vertex="1" connectable="0" parent="FNHps_0WdQr2aIm9V3DK-12">
          <mxGeometry x="-0.6154" y="3" relative="1" as="geometry">
            <mxPoint as="offset" />
          </mxGeometry>
        </mxCell>
        <mxCell id="FNHps_0WdQr2aIm9V3DK-14" value="T-test" style="rhombus;whiteSpace=wrap;html=1;" vertex="1" parent="FNHps_0WdQr2aIm9V3DK-1">
          <mxGeometry x="240" y="310" width="120" height="80" as="geometry" />
        </mxCell>
        <mxCell id="FNHps_0WdQr2aIm9V3DK-15" value="Alert action" style="rounded=1;whiteSpace=wrap;html=1;fillColor=#f8cecc;strokeColor=#b85450;" vertex="1" parent="FNHps_0WdQr2aIm9V3DK-1">
          <mxGeometry x="360" y="420" width="120" height="60" as="geometry" />
        </mxCell>
        <mxCell id="FNHps_0WdQr2aIm9V3DK-16" value="Pass" style="rounded=1;whiteSpace=wrap;html=1;fillColor=#d5e8d4;strokeColor=#82b366;" vertex="1" parent="FNHps_0WdQr2aIm9V3DK-1">
          <mxGeometry x="120" y="420" width="120" height="60" as="geometry" />
        </mxCell>
      </root>
    </mxGraphModel>
  </diagram>
  <diagram name="Copy of Page-4" id="01Tr0vh2RnlaK6Z8jIe2">
    <mxGraphModel dx="802" dy="469" grid="1" gridSize="10" guides="1" tooltips="1" connect="1" arrows="1" fold="1" page="1" pageScale="1" pageWidth="850" pageHeight="1100" math="0" shadow="0">
      <root>
        <mxCell id="UStA70XTol7fQ2BxzHVb-0" />
        <mxCell id="UStA70XTol7fQ2BxzHVb-1" parent="UStA70XTol7fQ2BxzHVb-0" />
        <mxCell id="UStA70XTol7fQ2BxzHVb-2" value="&lt;h1&gt;Scenario 3&lt;br&gt;&lt;/h1&gt;&lt;p&gt;&lt;span class=&quot;VIiyi&quot; lang=&quot;en&quot;&gt;&lt;span class=&quot;JLqJ4b ChMk0b&quot;&gt;&lt;span&gt;Heuristics&#39; approach&lt;br&gt;&lt;/span&gt;&lt;/span&gt;&lt;/span&gt;&lt;/p&gt;" style="text;html=1;strokeColor=none;fillColor=none;spacing=5;spacingTop=-20;whiteSpace=wrap;overflow=hidden;rounded=0;" vertex="1" parent="UStA70XTol7fQ2BxzHVb-1">
          <mxGeometry x="20" y="20" width="190" height="120" as="geometry" />
        </mxCell>
        <mxCell id="UStA70XTol7fQ2BxzHVb-3" style="edgeStyle=orthogonalEdgeStyle;rounded=0;orthogonalLoop=1;jettySize=auto;html=1;entryX=0.5;entryY=0;entryDx=0;entryDy=0;" edge="1" parent="UStA70XTol7fQ2BxzHVb-1" source="UStA70XTol7fQ2BxzHVb-4" target="UStA70XTol7fQ2BxzHVb-6">
          <mxGeometry relative="1" as="geometry" />
        </mxCell>
        <mxCell id="UStA70XTol7fQ2BxzHVb-4" value="Cache DB" style="shape=cylinder3;whiteSpace=wrap;html=1;boundedLbl=1;backgroundOutline=1;size=15;" vertex="1" parent="UStA70XTol7fQ2BxzHVb-1">
          <mxGeometry x="270" y="110" width="60" height="80" as="geometry" />
        </mxCell>
        <mxCell id="UStA70XTol7fQ2BxzHVb-5" style="edgeStyle=orthogonalEdgeStyle;rounded=0;orthogonalLoop=1;jettySize=auto;html=1;entryX=0.5;entryY=0;entryDx=0;entryDy=0;" edge="1" parent="UStA70XTol7fQ2BxzHVb-1" source="UStA70XTol7fQ2BxzHVb-6" target="UStA70XTol7fQ2BxzHVb-11">
          <mxGeometry relative="1" as="geometry">
            <mxPoint x="300" y="300" as="targetPoint" />
            <Array as="points">
              <mxPoint x="300" y="250" />
            </Array>
          </mxGeometry>
        </mxCell>
        <mxCell id="UStA70XTol7fQ2BxzHVb-6" value="Today&#39;s dump" style="rounded=1;whiteSpace=wrap;html=1;" vertex="1" parent="UStA70XTol7fQ2BxzHVb-1">
          <mxGeometry x="240" y="220" width="120" height="60" as="geometry" />
        </mxCell>
        <mxCell id="UStA70XTol7fQ2BxzHVb-7" style="edgeStyle=orthogonalEdgeStyle;rounded=0;orthogonalLoop=1;jettySize=auto;html=1;entryX=0.5;entryY=0;entryDx=0;entryDy=0;exitX=0;exitY=0.5;exitDx=0;exitDy=0;" edge="1" parent="UStA70XTol7fQ2BxzHVb-1" source="UStA70XTol7fQ2BxzHVb-11" target="UStA70XTol7fQ2BxzHVb-13">
          <mxGeometry relative="1" as="geometry">
            <Array as="points">
              <mxPoint x="180" y="350" />
            </Array>
          </mxGeometry>
        </mxCell>
        <mxCell id="UStA70XTol7fQ2BxzHVb-8" value="NOT SIGN." style="edgeLabel;html=1;align=center;verticalAlign=middle;resizable=0;points=[];" vertex="1" connectable="0" parent="UStA70XTol7fQ2BxzHVb-7">
          <mxGeometry x="-0.5385" y="1" relative="1" as="geometry">
            <mxPoint as="offset" />
          </mxGeometry>
        </mxCell>
        <mxCell id="UStA70XTol7fQ2BxzHVb-9" style="edgeStyle=orthogonalEdgeStyle;rounded=0;orthogonalLoop=1;jettySize=auto;html=1;entryX=0.5;entryY=0;entryDx=0;entryDy=0;" edge="1" parent="UStA70XTol7fQ2BxzHVb-1" source="UStA70XTol7fQ2BxzHVb-11" target="UStA70XTol7fQ2BxzHVb-12">
          <mxGeometry relative="1" as="geometry">
            <Array as="points">
              <mxPoint x="420" y="350" />
            </Array>
          </mxGeometry>
        </mxCell>
        <mxCell id="UStA70XTol7fQ2BxzHVb-10" value="SIGN." style="edgeLabel;html=1;align=center;verticalAlign=middle;resizable=0;points=[];" vertex="1" connectable="0" parent="UStA70XTol7fQ2BxzHVb-9">
          <mxGeometry x="-0.6154" y="3" relative="1" as="geometry">
            <mxPoint as="offset" />
          </mxGeometry>
        </mxCell>
        <mxCell id="UStA70XTol7fQ2BxzHVb-11" value="&lt;span class=&quot;VIiyi&quot; lang=&quot;en&quot;&gt;&lt;span class=&quot;JLqJ4b ChMk0b&quot;&gt;&lt;span&gt;Heuristics&lt;/span&gt;&lt;/span&gt;&lt;/span&gt;" style="rhombus;whiteSpace=wrap;html=1;" vertex="1" parent="UStA70XTol7fQ2BxzHVb-1">
          <mxGeometry x="240" y="310" width="120" height="80" as="geometry" />
        </mxCell>
        <mxCell id="UStA70XTol7fQ2BxzHVb-12" value="Alert action" style="rounded=1;whiteSpace=wrap;html=1;fillColor=#f8cecc;strokeColor=#b85450;" vertex="1" parent="UStA70XTol7fQ2BxzHVb-1">
          <mxGeometry x="360" y="420" width="120" height="60" as="geometry" />
        </mxCell>
        <mxCell id="UStA70XTol7fQ2BxzHVb-13" value="Pass" style="rounded=1;whiteSpace=wrap;html=1;fillColor=#d5e8d4;strokeColor=#82b366;" vertex="1" parent="UStA70XTol7fQ2BxzHVb-1">
          <mxGeometry x="120" y="420" width="120" height="60" as="geometry" />
        </mxCell>
      </root>
    </mxGraphModel>
  </diagram>
  <diagram name="Page-4" id="YvXLXoG_0Rbl79Doa01C">
    <mxGraphModel dx="802" dy="469" grid="1" gridSize="10" guides="1" tooltips="1" connect="1" arrows="1" fold="1" page="1" pageScale="1" pageWidth="850" pageHeight="1100" math="0" shadow="0">
      <root>
        <mxCell id="zI6_Dj0BXvNcTD3pNZty-0" />
        <mxCell id="zI6_Dj0BXvNcTD3pNZty-1" parent="zI6_Dj0BXvNcTD3pNZty-0" />
        <mxCell id="zI6_Dj0BXvNcTD3pNZty-2" value="&lt;h1&gt;Scenario 4&lt;br&gt;&lt;/h1&gt;&lt;p&gt;ADs metrics&lt;span class=&quot;VIiyi&quot; lang=&quot;en&quot;&gt;&lt;span class=&quot;JLqJ4b ChMk0b&quot;&gt;&lt;span&gt;&lt;br&gt;&lt;/span&gt;&lt;/span&gt;&lt;/span&gt;&lt;/p&gt;" style="text;html=1;strokeColor=none;fillColor=none;spacing=5;spacingTop=-20;whiteSpace=wrap;overflow=hidden;rounded=0;" vertex="1" parent="zI6_Dj0BXvNcTD3pNZty-1">
          <mxGeometry x="20" y="20" width="190" height="120" as="geometry" />
        </mxCell>
        <mxCell id="zI6_Dj0BXvNcTD3pNZty-4" style="edgeStyle=orthogonalEdgeStyle;rounded=0;orthogonalLoop=1;jettySize=auto;html=1;entryX=0.5;entryY=0;entryDx=0;entryDy=0;" edge="1" parent="zI6_Dj0BXvNcTD3pNZty-1" source="zI6_Dj0BXvNcTD3pNZty-5" target="zI6_Dj0BXvNcTD3pNZty-9">
          <mxGeometry relative="1" as="geometry" />
        </mxCell>
        <mxCell id="zI6_Dj0BXvNcTD3pNZty-5" value="Cache DB" style="shape=cylinder3;whiteSpace=wrap;html=1;boundedLbl=1;backgroundOutline=1;size=15;" vertex="1" parent="zI6_Dj0BXvNcTD3pNZty-1">
          <mxGeometry x="160" y="110" width="60" height="80" as="geometry" />
        </mxCell>
        <mxCell id="zI6_Dj0BXvNcTD3pNZty-8" style="edgeStyle=orthogonalEdgeStyle;rounded=0;orthogonalLoop=1;jettySize=auto;html=1;entryX=0.5;entryY=0;entryDx=0;entryDy=0;" edge="1" parent="zI6_Dj0BXvNcTD3pNZty-1" source="zI6_Dj0BXvNcTD3pNZty-9" target="zI6_Dj0BXvNcTD3pNZty-14">
          <mxGeometry relative="1" as="geometry">
            <mxPoint x="300" y="300" as="targetPoint" />
            <Array as="points">
              <mxPoint x="300" y="250" />
            </Array>
          </mxGeometry>
        </mxCell>
        <mxCell id="zI6_Dj0BXvNcTD3pNZty-9" value="Today&#39;s dump" style="rounded=1;whiteSpace=wrap;html=1;" vertex="1" parent="zI6_Dj0BXvNcTD3pNZty-1">
          <mxGeometry x="130" y="220" width="120" height="60" as="geometry" />
        </mxCell>
        <mxCell id="zI6_Dj0BXvNcTD3pNZty-10" style="edgeStyle=orthogonalEdgeStyle;rounded=0;orthogonalLoop=1;jettySize=auto;html=1;entryX=0.5;entryY=0;entryDx=0;entryDy=0;exitX=0;exitY=0.5;exitDx=0;exitDy=0;" edge="1" parent="zI6_Dj0BXvNcTD3pNZty-1" source="zI6_Dj0BXvNcTD3pNZty-14" target="zI6_Dj0BXvNcTD3pNZty-16">
          <mxGeometry relative="1" as="geometry">
            <Array as="points">
              <mxPoint x="180" y="350" />
            </Array>
          </mxGeometry>
        </mxCell>
        <mxCell id="zI6_Dj0BXvNcTD3pNZty-11" value="NOT SIGN." style="edgeLabel;html=1;align=center;verticalAlign=middle;resizable=0;points=[];" vertex="1" connectable="0" parent="zI6_Dj0BXvNcTD3pNZty-10">
          <mxGeometry x="-0.5385" y="1" relative="1" as="geometry">
            <mxPoint as="offset" />
          </mxGeometry>
        </mxCell>
        <mxCell id="zI6_Dj0BXvNcTD3pNZty-12" style="edgeStyle=orthogonalEdgeStyle;rounded=0;orthogonalLoop=1;jettySize=auto;html=1;entryX=0.5;entryY=0;entryDx=0;entryDy=0;" edge="1" parent="zI6_Dj0BXvNcTD3pNZty-1" source="zI6_Dj0BXvNcTD3pNZty-14" target="zI6_Dj0BXvNcTD3pNZty-15">
          <mxGeometry relative="1" as="geometry">
            <Array as="points">
              <mxPoint x="420" y="350" />
            </Array>
          </mxGeometry>
        </mxCell>
        <mxCell id="zI6_Dj0BXvNcTD3pNZty-13" value="SIGN." style="edgeLabel;html=1;align=center;verticalAlign=middle;resizable=0;points=[];" vertex="1" connectable="0" parent="zI6_Dj0BXvNcTD3pNZty-12">
          <mxGeometry x="-0.6154" y="3" relative="1" as="geometry">
            <mxPoint as="offset" />
          </mxGeometry>
        </mxCell>
        <mxCell id="zI6_Dj0BXvNcTD3pNZty-14" value="&lt;div&gt;&lt;span class=&quot;VIiyi&quot; lang=&quot;en&quot;&gt;&lt;span class=&quot;JLqJ4b ChMk0b&quot;&gt;&lt;span&gt;Correlation/&lt;/span&gt;&lt;/span&gt;&lt;/span&gt;&lt;/div&gt;&lt;div&gt;&lt;span class=&quot;VIiyi&quot; lang=&quot;en&quot;&gt;&lt;span class=&quot;JLqJ4b ChMk0b&quot;&gt;&lt;span&gt;Heuristics&lt;/span&gt;&lt;/span&gt;&lt;/span&gt;&lt;/div&gt;" style="rhombus;whiteSpace=wrap;html=1;" vertex="1" parent="zI6_Dj0BXvNcTD3pNZty-1">
          <mxGeometry x="240" y="310" width="120" height="80" as="geometry" />
        </mxCell>
        <mxCell id="zI6_Dj0BXvNcTD3pNZty-15" value="Alert action" style="rounded=1;whiteSpace=wrap;html=1;fillColor=#f8cecc;strokeColor=#b85450;" vertex="1" parent="zI6_Dj0BXvNcTD3pNZty-1">
          <mxGeometry x="360" y="420" width="120" height="60" as="geometry" />
        </mxCell>
        <mxCell id="zI6_Dj0BXvNcTD3pNZty-16" value="Pass" style="rounded=1;whiteSpace=wrap;html=1;fillColor=#d5e8d4;strokeColor=#82b366;" vertex="1" parent="zI6_Dj0BXvNcTD3pNZty-1">
          <mxGeometry x="120" y="420" width="120" height="60" as="geometry" />
        </mxCell>
        <mxCell id="1M-c-unrzBWoZVsjgSM9-3" style="edgeStyle=orthogonalEdgeStyle;rounded=0;orthogonalLoop=1;jettySize=auto;html=1;entryX=0.5;entryY=0;entryDx=0;entryDy=0;" edge="1" parent="zI6_Dj0BXvNcTD3pNZty-1" source="1M-c-unrzBWoZVsjgSM9-0" target="1M-c-unrzBWoZVsjgSM9-2">
          <mxGeometry relative="1" as="geometry" />
        </mxCell>
        <mxCell id="1M-c-unrzBWoZVsjgSM9-0" value="DSP" style="shape=parallelogram;perimeter=parallelogramPerimeter;whiteSpace=wrap;html=1;fixedSize=1;" vertex="1" parent="zI6_Dj0BXvNcTD3pNZty-1">
          <mxGeometry x="360" y="120" width="120" height="60" as="geometry" />
        </mxCell>
        <mxCell id="1M-c-unrzBWoZVsjgSM9-5" style="edgeStyle=orthogonalEdgeStyle;rounded=0;orthogonalLoop=1;jettySize=auto;html=1;" edge="1" parent="zI6_Dj0BXvNcTD3pNZty-1" source="1M-c-unrzBWoZVsjgSM9-2">
          <mxGeometry relative="1" as="geometry">
            <mxPoint x="300" y="310" as="targetPoint" />
          </mxGeometry>
        </mxCell>
        <mxCell id="1M-c-unrzBWoZVsjgSM9-2" value="ADs metrics" style="rounded=1;whiteSpace=wrap;html=1;" vertex="1" parent="zI6_Dj0BXvNcTD3pNZty-1">
          <mxGeometry x="360" y="220" width="120" height="60" as="geometry" />
        </mxCell>
      </root>
    </mxGraphModel>
  </diagram>
</mxfile>
